{"title":"Noce Blanche (1989) -  Jean-Claude Brisseau","uid":11549394,"size":3812570796,"categoryP":"video","categoryS":"hd___movies","magnet":"?xt=urn:btih:000118589912c37d50cec5c0f2fcde193295bb0f&amp;dn=Noce+Blanche+%281989%29+-++Jean-Claude+Brisseau&amp;tr=udp%3A%2F%2Ftracker.openbittorrent.com%3A80&amp;tr=udp%3A%2F%2Fopen.demonii.com%3A1337&amp;tr=udp%3A%2F%2Ftracker.coppersurfer.tk%3A6969&amp;tr=udp%3A%2F%2Fexodus.desync.com%3A6969","seeders":1,"leechers":1,"uploader":"cavallone","files":1,"time":1416764161,"description":"Plot: A teacher of philosophy discovers a complicated pupil, a seventeen years old girl with a quite cynic and lucid view of the world. He gets involved in helping her to follow the routine of the study, but soon he is fascinated by her and they fall in a passionate love. When the teacher confronts their affair with reality he decides staying with her wife. But the girl will not accept it. \n\nRip Specs:\n\nGeneral\nUnique ID : 333185629696051627372853640655054171811 (0xFAA937D72DB63BB356CB91DDBC85EEA3)\nComplete name : Noce Blanche.1989.720p.HDTV.x264.mkv\nFormat : Matroska\nFormat version : Version 2\nFile size : 3.55 GiB\nDuration : 1h 28mn\nOverall bit rate : 5 761 Kbps\nWriting application : HandBrake 0.9.9\nWriting library : libmkv 0.6.5\n\nVideo\nID : 1\nFormat : AVC\nFormat/Info : Advanced Video Codec\nFormat profile : &lt;a class=&quot;__cf_email__&quot; href=&quot;/cdn-cgi/l/email-protection&quot; data-cfemail=&quot;b0f8d9d7d8f0fc849e81&quot;&gt;[email&amp;#160;protected]&lt;/a&gt;&lt;script cf-hash='f9e31' type=&quot;text/javascript&quot;&gt;\n/* &lt;![CDATA[ */!function(){try{var t=&quot;currentScript&quot;in document?document.currentScript:function(){for(var t=document.getElementsByTagName(&quot;script&quot;),e=t.length;e--;)if(t[e].getAttribute(&quot;cf-hash&quot;))return t[e]}();if(t&amp;&amp;t.previousSibling){var e,r,n,i,c=t.previousSibling,a=c.getAttribute(&quot;data-cfemail&quot;);if(a){for(e=&quot;&quot;,r=parseInt(a.substr(0,2),16),n=2;a.length-n;n+=2)i=parseInt(a.substr(n,2),16)^r,e+=String.fromCharCode(i);e=document.createTextNode(e),c.parentNode.replaceChild(e,c)}}}catch(u){}}();/* ]]&gt; */&lt;/script&gt;\nFormat settings, CABAC : Yes\nFormat settings, ReFrames : 9 frames\nCodec ID : V_MPEG4/ISO/AVC\nDuration : 1h 28mn\nBit rate : 5 500 Kbps\nWidth : 986 pixels\nHeight : 720 pixels\nDisplay aspect ratio : 4:3\nFrame rate mode : Constant\nFrame rate : 25.000 fps\nColor space : YUV\nChroma subsampling : 4:2:0\nBit depth : 8 bits\nScan type : Progressive\nBits/(Pixel*Frame) : 0.310\nStream size : 3.32 GiB (94%)\nWriting library : x264 core 130 r2273 b3065e6\nEncoding settings : cabac=1 / ref=9 / deblock=1:-2:-2 / analyse=0x3:0x133 / me=umh / subme=9 / psy=1 / psy_rd=1.00:0.00 / mixed_ref=1 / me_range=28 / chroma_me=1 / trellis=2 / 8x8dct=1 / cqm=0 / deadzone=21,11 / fast_pskip=0 / chroma_qp_offset=-2 / threads=18 / lookahead_threads=2 / sliced_threads=0 / nr=0 / decimate=1 / interlaced=0 / bluray_compat=0 / constrained_intra=0 / bframes=6 / b_pyramid=2 / b_adapt=2 / b_bias=0 / direct=3 / weightb=1 / open_gop=0 / weightp=2 / keyint=250 / keyint_min=25 / scenecut=40 / intra_refresh=0 / rc_lookahead=50 / rc=2pass / mbtree=1 / bitrate=5500 / ratetol=1.0 / qcomp=0.60 / qpmin=0 / qpmax=69 / qpstep=4 / cplxblur=20.0 / qblur=0.5 / vbv_maxrate=62500 / vbv_bufsize=78125 / nal_hrd=none / ip_ratio=1.40 / aq=1:1.00\nLanguage : English\nDefault : Yes\nForced : No\nColor primaries : BT.709\nTransfer characteristics : BT.709\nMatrix coefficients : BT.709\n\nAudio\nID : 2\nFormat : AC-3\nFormat/Info : Audio Coding 3\nMode extension : CM (complete main)\nFormat settings, Endianness : Big\nCodec ID : A_AC3\nDuration : 1h 28mn\nBit rate mode : Constant\nBit rate : 256 Kbps\nChannel(s) : 2 channels\nChannel positions : Front: L R\nSampling rate : 48.0 KHz\nBit depth : 16 bits\nCompression mode : Lossy\nStream size : 162 MiB (4%)\nLanguage : French\nDefault : Yes\nForced : No\n\nText\nID : 3\nFormat : UTF-8\nCodec ID : S_TEXT/UTF8\nCodec ID/Info : UTF-8 Plain Text\nLanguage : English\nDefault : No\nForced : No\n\nMenu\n00:00:00.000 : Chapter 1\n00:08:38.600 : Chapter 2\n00:18:39.400 : Chapter 3\n00:27:23.480 : Chapter 4\n00:35:35.520 : Chapter 5\n00:43:18.240 : Chapter 6\n00:51:15.080 : Chapter 7\n00:56:51.840 : Chapter 8\n01:04:42.040 : Chapter 9\n01:11:27.280 : Chapter 10\n01:21:33.560 : Chapter 11\n01:28:11.440 : Chapter 12","torrent":{"xt":"urn:btih:000118589912c37d50cec5c0f2fcde193295bb0f","amp;dn":"Noce+Blanche+%281989%29+-++Jean-Claude+Brisseau","amp;tr":["udp%3A%2F%2Ftracker.openbittorrent.com%3A80","udp%3A%2F%2Fopen.demonii.com%3A1337","udp%3A%2F%2Ftracker.coppersurfer.tk%3A6969","udp%3A%2F%2Fexodus.desync.com%3A6969"],"infoHash":"000118589912c37d50cec5c0f2fcde193295bb0f","infoHashBuffer":{"type":"Buffer","data":[0,1,24,88,153,18,195,125,80,206,197,192,242,252,222,25,50,149,187,15]},"announce":[],"urlList":[]}}